<?xml version="1.0" standalone="yes"?>

<svg version="1.1" viewBox="0.0 0.0 960.0 720.0" fill="none" stroke="none" stroke-linecap="square" stroke-miterlimit="10" xmlns="http://www.w3.org/2000/svg" xmlns:xlink="http://www.w3.org/1999/xlink"><clipPath id="p.0"><path d="m0 0l960.0 0l0 720.0l-960.0 0l0 -720.0z" clip-rule="nonzero"></path></clipPath><g clip-path="url(#p.0)"><path fill="#000000" fill-opacity="0.0" d="m0 0l960.0 0l0 720.0l-960.0 0z" fill-rule="nonzero"></path><path fill="#000000" fill-opacity="0.0" d="m470.62466 280.41995l0 0c0 -43.252167 35.062805 -78.31497 78.31497 -78.31497l0 0c20.770386 0 40.690125 8.251022 55.377014 22.937927c14.686951 14.686905 22.937927 34.60663 22.937927 55.377045l0 0c0 43.252167 -35.062805 78.31494 -78.31494 78.31494l0 0c-43.252167 0 -78.31497 -35.062775 -78.31497 -78.31494z" fill-rule="nonzero"></path><path stroke="#000000" stroke-width="16.0" stroke-linejoin="round" stroke-linecap="butt" d="m470.62466 280.41995l0 0c0 -43.252167 35.062805 -78.31497 78.31497 -78.31497l0 0c20.770386 0 40.690125 8.251022 55.377014 22.937927c14.686951 14.686905 22.937927 34.60663 22.937927 55.377045l0 0c0 43.252167 -35.062805 78.31494 -78.31494 78.31494l0 0c-43.252167 0 -78.31497 -35.062775 -78.31497 -78.31494z" fill-rule="nonzero"></path><path fill="#000000" d="m517.99475 147.99747l0 0c0 -2.67305 2.1669312 -4.839981 4.839966 -4.839981l52.209778 0c1.2836914 0 2.5147705 0.5099182 3.4224243 1.4176025c0.9076538 0.90766907 1.4176025 2.138733 1.4176025 3.4223785l0 19.35939c0 2.67305 -2.1669312 4.8399963 -4.840027 4.8399963l-52.209778 0c-2.6730347 0 -4.839966 -2.1669464 -4.839966 -4.8399963z" fill-rule="nonzero"></path><path stroke="#000000" stroke-width="16.0" stroke-linejoin="round" stroke-linecap="butt" d="m517.99475 147.99747l0 0c0 -2.67305 2.1669312 -4.839981 4.839966 -4.839981l52.209778 0c1.2836914 0 2.5147705 0.5099182 3.4224243 1.4176025c0.9076538 0.90766907 1.4176025 2.138733 1.4176025 3.4223785l0 19.35939c0 2.67305 -2.1669312 4.8399963 -4.840027 4.8399963l-52.209778 0c-2.6730347 0 -4.839966 -2.1669464 -4.839966 -4.8399963z" fill-rule="nonzero"></path><path fill="#000000" d="m534.7808 280.41995l0 0c0 -8.019012 6.338562 -14.519684 14.157471 -14.519684l0 0c3.7548218 0 7.355835 1.5297546 10.010864 4.252716c2.6550293 2.7229614 4.1466675 6.416107 4.1466675 10.266968l0 0c0 8.018982 -6.338562 14.519684 -14.157532 14.519684l0 0c-7.8189087 0 -14.157471 -6.500702 -14.157471 -14.519684z" fill-rule="nonzero"></path><path stroke="#000000" stroke-width="8.0" stroke-linejoin="round" stroke-linecap="butt" d="m534.7808 280.41995l0 0c0 -8.019012 6.338562 -14.519684 14.157471 -14.519684l0 0c3.7548218 0 7.355835 1.5297546 10.010864 4.252716c2.6550293 2.7229614 4.1466675 6.416107 4.1466675 10.266968l0 0c0 8.018982 -6.338562 14.519684 -14.157532 14.519684l0 0c-7.8189087 0 -14.157471 -6.500702 -14.157471 -14.519684z" fill-rule="nonzero"></path><path fill="#000000" d="m627.24774 196.01126l22.64569 28.157486l-13.007874 10.456696l-22.64569 -28.157486z" fill-rule="nonzero"></path><path stroke="#000000" stroke-width="4.0" stroke-linejoin="round" stroke-linecap="butt" d="m627.24774 196.01126l22.64569 28.157486l-13.007874 10.456696l-22.64569 -28.157486z" fill-rule="nonzero"></path><path fill="#000000" d="m531.11285 174.34912l0 0c0 -1.1886597 0.96362305 -2.1522675 2.1522827 -2.1522675l31.348999 0c0.5708008 0 1.1182251 0.22676086 1.5219116 0.63038635c0.4036255 0.4036255 0.6303711 0.95106506 0.6303711 1.5218811l0 8.608841c0 1.1886749 -0.96362305 2.1522675 -2.1522827 2.1522675l-31.348999 0c-1.1886597 0 -2.1522827 -0.9635925 -2.1522827 -2.1522675z" fill-rule="nonzero"></path><path stroke="#000000" stroke-width="1.0" stroke-linejoin="round" stroke-linecap="butt" d="m531.11285 174.34912l0 0c0 -1.1886597 0.96362305 -2.1522675 2.1522827 -2.1522675l31.348999 0c0.5708008 0 1.1182251 0.22676086 1.5219116 0.63038635c0.4036255 0.4036255 0.6303711 0.95106506 0.6303711 1.5218811l0 8.608841c0 1.1886749 -0.96362305 2.1522675 -2.1522827 2.1522675l-31.348999 0c-1.1886597 0 -2.1522827 -0.9635925 -2.1522827 -2.1522675z" fill-rule="nonzero"></path><path fill="#000000" d="m554.6247 282.36353l-5.6850586 -62.834656l-5.6850586 62.834656z" fill-rule="nonzero"></path><path stroke="#000000" stroke-width="1.0" stroke-linejoin="round" stroke-linecap="butt" d="m554.6247 282.36353l-5.6850586 -62.834656l-5.6850586 62.834656z" fill-rule="nonzero"></path><path fill="#000000" fill-opacity="0.0" d="m410.25986 364.36484l299.99997 0l0 69.480316l-299.99997 0z" fill-rule="nonzero"></path><path fill="#000000" d="m419.25986 382.90482l0 -10.5l9.0 0l9.0 0l0 1.5l0 1.5l1.5 0l1.5 0l0 4.5l0 4.5l-1.5 0l-1.5 0l0 1.5l0 1.5l-6.0 0l-6.0 0l0 3.0l0 3.0l-3.0 0l-3.0 0l0 -10.5zm15.0 -3.0l0 -4.5l-4.5 0l-4.5 0l0 4.5l0 4.5l4.5 0l4.5 0l0 -4.5zm12.0 6.0l0 -7.5l3.0 0l3.0 0l0 1.5l0 1.5l1.5 0l1.5 0l0 -1.5l0 -1.5l4.5 0l4.5 0l0 1.5l0 1.5l-4.5 0l-4.5 0l0 1.5l0 1.5l-1.5 0l-1.5 0l0 4.5l0 4.5l-3.0 0l-3.0 0l0 -7.5zm24.0 -6.0l0 -1.5l7.5 0l7.5 0l0 1.5l0 1.5l1.5 0l1.5 0l0 4.5l0 4.5l-1.5 0l-1.5 0l0 1.5l0 1.5l-7.5 0l-7.5 0l0 -1.5l0 -1.5l-1.5 0l-1.5 0l0 -4.5l0 -4.5l1.5 0l1.5 0l0 -1.5zm12.0 6.0l0 -4.5l-4.5 0l-4.5 0l0 4.5l0 4.5l4.5 0l4.5 0l0 -4.5zm12.0 -6.0l0 -1.5l9.0 0l8.9999695 0l0 1.5l0 1.5l-7.4999695 0l-7.5 0l0 4.5l0 4.5l7.5 0l7.4999695 0l0 1.5l0 1.5l-8.9999695 0l-9.0 0l0 -1.5l0 -1.5l-1.5 0l-1.5 0l0 -4.5l0 -4.5l1.5 0l1.5 0l0 -1.5zm23.99997 6.0l0 -7.5l3.0 0l3.0 0l0 1.5l0 1.5l1.5 0l1.5 0l0 -1.5l0 -1.5l4.5 0l4.5 0l0 1.5l0 1.5l-4.5 0l-4.5 0l0 1.5l0 1.5l-1.5 0l-1.5 0l0 4.5l0 4.5l-3.0 0l-3.0 0l0 -7.5zm24.0 -6.0l0 -1.5l7.5 0l7.5 0l0 1.5l0 1.5l1.5 0l1.5 0l0 6.0l0 6.0l-9.0 0l-9.0 0l0 -1.5l0 -1.5l-1.5 0l-1.5 0l0 -1.5l0 -1.5l1.5 0l1.5 0l0 -1.5l0 -1.5l6.0 0l6.0 0l0 -1.5l0 -1.5l-6.0 0l-6.0 0l0 -1.5zm12.0 9.0l0 -1.5l-4.5 0l-4.5 0l0 1.5l0 1.5l4.5 0l4.5 0l0 -1.5zm12.0 -9.0l0 -1.5l7.5 0l7.5 0l0 1.5l0 1.5l-6.0 0l-6.0 0l0 1.5l0 1.5l6.0 0l6.0 0l0 1.5l0 1.5l1.5 0l1.5 0l0 1.5l0 1.5l-1.5 0l-1.5 0l0 1.5l0 1.5l-9.0 0l-9.0 0l0 -1.5l0 -1.5l7.5 0l7.5 0l0 -1.5l0 -1.5l-6.0 0l-6.0 0l0 -1.5l0 -1.5l-1.5 0l-1.5 0l0 -1.5l0 -1.5l1.5 0l1.5 0l0 -1.5zm30.0 -4.5l0 -3.0l3.0 0l3.0 0l0 3.0l0 3.0l3.0 0l3.0 0l0 1.5l0 1.5l-3.0 0l-3.0 0l0 6.0l0 6.0l-3.0 0l-3.0 0l0 -6.0l0 -6.0l-3.0 0l-3.0 0l0 -1.5l0 -1.5l3.0 0l3.0 0l0 -3.0zm21.0 4.5l0 -1.5l4.5 0l4.5 0l0 6.0l0 6.0l3.0 0l3.0 0l0 1.5l0 1.5l-9.0 0l-9.0 0l0 -1.5l0 -1.5l3.0 0l3.0 0l0 -4.5l0 -4.5l-1.5 0l-1.5 0l0 -1.5zm3.0 -6.0l0 -1.5l3.0 0l3.0 0l0 1.5l0 1.5l-3.0 0l-3.0 0l0 -1.5zm15.0 12.0l0 -7.5l9.0 0l9.0 0l0 1.5l0 1.5l1.5 0l1.5 0l0 6.0l0 6.0l-3.0 0l-3.0 0l0 -6.0l0 -6.0l-4.5 0l-4.5 0l0 6.0l0 6.0l-3.0 0l-3.0 0l0 -7.5zm27.0 -12.0l0 -1.5l6.0 0l6.0 0l0 1.5l0 1.5l1.5 0l1.5 0l0 3.0l0 3.0l-1.5 0l-1.5 0l0 1.5l0 1.5l3.0 0l3.0 0l0 3.0l0 3.0l-1.5 0l-1.5 0l0 1.5l0 1.5l-7.5 0l-7.5 0l0 -1.5l0 -1.5l-1.5 0l-1.5 0l0 -3.0l0 -3.0l1.5 0l1.5 0l0 -1.5l0 -1.5l-1.5 0l-1.5 0l0 -3.0l0 -3.0l1.5 0l1.5 0l0 -1.5zm12.0 4.5l0 -3.0l-4.5 0l-4.5 0l0 1.5l0 1.5l1.5 0l1.5 0l0 1.5l0 1.5l3.0 0l3.0 0l0 -3.0zm-6.0 7.5l0 -1.5l-3.0 0l-3.0 0l0 3.0l0 3.0l6.0 0l6.0 0l0 -1.5l0 -1.5l-3.0 0l-3.0 0l0 -1.5z" fill-rule="nonzero"></path></g></svg>

